<svg width="136" height="48" viewBox="0 0 136 48" fill="none" xmlns="http://www.w3.org/2000/svg">
<rect x="0.5" y="0.5" width="135" height="47" rx="3.5" fill="white" stroke="#A4C929"/>
<path d="M53.505 30.0989L53.0535 32.5722C53.4624 32.5633 53.778 32.4599 54.0005 32.263C54.2228 32.0662 54.3725 31.757 54.4497 31.3355C54.5248 30.9229 54.4929 30.6137 54.3539 30.408C54.215 30.2012 53.9712 30.0989 53.6227 30.0989H53.505ZM49 38.3223L50.8949 27.9447H54.3472C55.515 27.9447 56.3825 28.2316 56.9504 28.8048C57.5179 29.3782 57.7117 30.1578 57.5317 31.1436C57.4211 31.7497 57.1758 32.2675 56.7955 32.6967C56.4154 33.1249 55.9003 33.4674 55.2502 33.7232L56.5375 38.3223H53.3576L52.7368 34.3059L52.0032 38.3223H49Z" fill="#90B823"/>
<path d="M60.0421 33.7673H61.654C61.7291 33.3552 61.7182 33.046 61.6208 32.8403C61.5236 32.6334 61.3399 32.5305 61.0704 32.5305C60.859 32.5305 60.6701 32.6312 60.5034 32.8325C60.3367 33.0338 60.1827 33.3451 60.0421 33.7673ZM63.5688 35.7784C63.3047 36.6315 62.8398 37.3031 62.1736 37.7936C61.5074 38.2841 60.7231 38.5293 59.8202 38.5293C58.7602 38.5293 58.0036 38.1989 57.5498 37.5378C57.0966 36.8761 56.9814 35.9352 57.2049 34.7119C57.4289 33.4853 57.8925 32.5334 58.595 31.8555C59.2978 31.1777 60.1694 30.839 61.2097 30.839C62.3433 30.839 63.1348 31.1399 63.5846 31.7415C64.0337 32.3431 64.1478 33.2507 63.9263 34.4639C63.9005 34.6052 63.8794 34.7141 63.8635 34.787C63.8477 34.861 63.8292 34.9277 63.8082 34.9894H59.8187L59.8006 35.0889C59.7027 35.6249 59.6954 36.0087 59.7781 36.2406C59.8607 36.4729 60.0444 36.5886 60.3289 36.5886C60.54 36.5886 60.7225 36.5224 60.8768 36.3901C61.0312 36.2572 61.1631 36.0531 61.2722 35.7784H63.5688Z" fill="#90B823"/>
<path d="M68.2767 38.2095C68.0607 38.3185 67.8338 38.3986 67.5961 38.4508C67.3581 38.5031 67.0947 38.5293 66.8051 38.5293C65.8335 38.5293 65.1307 38.1873 64.6963 37.5021C64.2617 36.8178 64.1535 35.8786 64.3714 34.6842C64.5853 33.5137 65.0441 32.58 65.748 31.8838C66.4518 31.1877 67.2819 30.839 68.2389 30.839C68.5039 30.839 68.7463 30.863 68.9656 30.9096C69.1853 30.9575 69.3863 31.0309 69.5695 31.1299L69.162 33.3618C69.079 33.3052 68.9909 33.2634 68.8974 33.2373C68.8042 33.2117 68.701 33.1984 68.5882 33.1984C68.3036 33.1984 68.0523 33.3318 67.8347 33.5965C67.6171 33.8617 67.4662 34.2249 67.3823 34.6842C67.2974 35.1484 67.3118 35.4976 67.4264 35.7329C67.5404 35.967 67.7524 36.0843 68.0613 36.0843C68.1494 36.0843 68.2465 36.0709 68.3517 36.0453C68.4569 36.0186 68.5704 35.982 68.692 35.9352L68.2767 38.2095Z" fill="#90B823"/>
<path d="M69.1167 38.3223L71.1844 26.9994H73.915L71.8478 38.3223H69.1167Z" fill="#90B823"/>
<path d="M76.2812 34.6842C76.187 35.2013 76.1715 35.5894 76.2342 35.8496C76.297 36.1105 76.4387 36.2406 76.6598 36.2406C76.8807 36.2406 77.0731 36.1071 77.2372 35.8385C77.4016 35.5716 77.5294 35.1863 77.6212 34.6842C77.7145 34.1726 77.728 33.7822 77.6615 33.5142C77.5954 33.2473 77.4516 33.1127 77.2309 33.1127C77.0148 33.1127 76.8263 33.2462 76.665 33.512C76.5034 33.7766 76.376 34.167 76.2812 34.6842ZM77.0155 38.3235L77.1621 37.52C76.8279 37.8704 76.5032 38.1266 76.1865 38.288C75.8701 38.4486 75.5427 38.5293 75.2038 38.5293C74.4531 38.5293 73.9271 38.1918 73.6263 37.5167C73.3248 36.8416 73.285 35.8975 73.5065 34.6842C73.7298 33.4619 74.1126 32.515 74.654 31.8443C75.1963 31.1743 75.8476 30.839 76.608 30.839C76.9518 30.839 77.2512 30.9186 77.5069 31.077C77.7626 31.2355 77.9939 31.488 78.2005 31.8339L78.3445 31.0448H81.0753L79.7465 38.3235H77.0155Z" fill="#90B823"/>
<path d="M80.7471 38.3223L82.0762 31.0436H84.6967L84.4991 32.124C84.8305 31.707 85.1875 31.3989 85.5697 31.1999C85.952 31.0008 86.3738 30.9018 86.8351 30.9018C87.2669 30.9018 87.6053 31.0019 87.8509 31.2043C88.0963 31.4056 88.2451 31.7125 88.2976 32.124C88.5846 31.707 88.9108 31.3989 89.276 31.1999C89.641 31.0008 90.0568 30.9018 90.523 30.9018C91.0972 30.9018 91.5049 31.0675 91.7462 31.3989C91.9871 31.7315 92.0498 32.214 91.9338 32.8491L90.9343 38.3223H88.2037L88.977 34.0858C89.0186 33.8588 89.0079 33.6904 88.9442 33.582C88.8806 33.4724 88.7628 33.4174 88.5912 33.4174C88.434 33.4174 88.2999 33.4807 88.1886 33.6064C88.0775 33.7321 88.0015 33.9061 87.961 34.1285L87.1953 38.3223H84.479L85.2527 34.0858C85.2941 33.8588 85.2832 33.6904 85.2195 33.582C85.1562 33.4724 85.0384 33.4174 84.8668 33.4174C84.7048 33.4174 84.5668 33.4807 84.4531 33.6064C84.3394 33.7321 84.2624 33.9061 84.2217 34.1285L83.456 38.3223H80.7471Z" fill="#90B823"/>
<path d="M95.1304 33.7673H96.7423C96.8178 33.3552 96.8068 33.046 96.7095 32.8403C96.6122 32.6334 96.4282 32.5305 96.1587 32.5305C95.9477 32.5305 95.7585 32.6312 95.5918 32.8325C95.4251 33.0338 95.271 33.3451 95.1304 33.7673ZM98.6569 35.7784C98.3931 36.6315 97.9284 37.3031 97.262 37.7936C96.5962 38.2841 95.8115 38.5293 94.9086 38.5293C93.8486 38.5293 93.0917 38.1989 92.6385 37.5378C92.185 36.8761 92.0697 35.9352 92.2933 34.7119C92.5173 33.4853 92.9805 32.5334 93.6836 31.8555C94.3862 31.1777 95.2578 30.839 96.298 30.839C97.432 30.839 98.2232 31.1399 98.6729 31.7415C99.1223 32.3431 99.2364 33.2507 99.0149 34.4639C98.9888 34.6052 98.9677 34.7141 98.9522 34.787C98.9361 34.861 98.918 34.9277 98.8966 34.9894H94.9071L94.8889 35.0889C94.791 35.6249 94.7835 36.0087 94.8664 36.2406C94.9491 36.4729 95.1329 36.5886 95.4176 36.5886C95.6286 36.5886 95.8112 36.5224 95.9652 36.3901C96.1196 36.2572 96.2513 36.0531 96.3603 35.7784H98.6569Z" fill="#90B823"/>
<path d="M102.527 34.6974H103.719L103.818 30.8517L102.527 34.6974ZM98.4131 38.3223L102.663 27.9447H106.042L106.495 38.3223H103.573L103.624 36.7938H101.85L101.342 38.3223H98.4131Z" fill="#007535"/>
<path d="M110.612 33.0698C110.415 34.1464 110.354 34.8826 110.429 35.2808C110.503 35.6789 110.725 35.878 111.093 35.878C111.456 35.878 111.745 35.6822 111.962 35.2913C112.178 34.9004 112.385 34.1597 112.584 33.0698C112.783 31.9801 112.846 31.2394 112.774 30.8456C112.7 30.452 112.482 30.2551 112.119 30.2551C111.751 30.2551 111.457 30.4548 111.238 30.8523C111.017 31.2505 110.809 31.99 110.612 33.0698ZM111.841 40L110.957 38.5147C110.923 38.5147 110.87 38.5169 110.798 38.5214C110.725 38.5259 110.672 38.5287 110.638 38.5287C109.347 38.5287 108.434 38.0599 107.899 37.1213C107.364 36.1837 107.253 34.8559 107.566 33.1411C107.879 31.4262 108.474 30.0967 109.35 29.1541C110.227 28.2111 111.303 27.7396 112.579 27.7396C113.85 27.7396 114.749 28.2094 115.276 29.1503C115.804 30.0906 115.911 31.4211 115.596 33.1411C115.416 34.132 115.141 34.9916 114.772 35.7211C114.404 36.4507 113.933 37.0668 113.36 37.5695L114.444 38.8912L111.841 40Z" fill="#007535"/>
<path d="M116.145 34.613L117.363 27.9459H120.359L119.091 34.8904C119.035 35.1934 119.051 35.4175 119.137 35.5616C119.224 35.7062 119.385 35.7784 119.62 35.7784C119.861 35.7784 120.05 35.7062 120.19 35.5616C120.329 35.4175 120.426 35.1934 120.482 34.8904L121.75 27.9459H124.761L123.543 34.613C123.296 35.9687 122.817 36.9595 122.106 37.5879C121.395 38.2157 120.399 38.5293 119.118 38.5293C117.842 38.5293 116.966 38.2157 116.489 37.5879C116.013 36.9595 115.898 35.9687 116.145 34.613Z" fill="#007535"/>
<path d="M124.102 38.3223L125.997 27.9447H129L127.106 38.3223H124.102Z" fill="#007535"/>
<path d="M59.1924 17.9893C59.1924 19.6162 58.7845 20.8809 57.9688 21.7832C57.1576 22.6855 56.0068 23.1367 54.5166 23.1367C53.0081 23.1367 51.8483 22.6901 51.0371 21.7969C50.2305 20.8991 49.8271 19.6253 49.8271 17.9756C49.8271 16.3258 50.2327 15.0589 51.0439 14.1748C51.8597 13.2907 53.0218 12.8486 54.5303 12.8486C56.016 12.8486 57.1644 13.2975 57.9756 14.1953C58.7868 15.0931 59.1924 16.3577 59.1924 17.9893ZM51.5635 17.9893C51.5635 19.2197 51.8118 20.154 52.3086 20.792C52.8053 21.4255 53.5413 21.7422 54.5166 21.7422C55.4873 21.7422 56.2188 21.4277 56.7109 20.7988C57.2077 20.1699 57.4561 19.2334 57.4561 17.9893C57.4561 16.7633 57.21 15.8337 56.7178 15.2002C56.2301 14.5667 55.501 14.25 54.5303 14.25C53.5505 14.25 52.8099 14.5667 52.3086 15.2002C51.8118 15.8337 51.5635 16.7633 51.5635 17.9893ZM53.4912 12.2061V12.0352C53.751 11.7161 54.0176 11.3607 54.291 10.9688C54.569 10.5768 54.7878 10.2419 54.9473 9.96387H56.8135V10.1074C56.5765 10.3854 56.221 10.7454 55.7471 11.1875C55.2777 11.625 54.8812 11.9645 54.5576 12.2061H53.4912ZM64.791 23H63.1572V14.4072H60.2178V13.0059H67.7305V14.4072H64.791V23ZM69.2686 23V13.0059H70.9023V23H69.2686ZM77.8682 23L74.9697 14.6533H74.915C74.9925 15.8929 75.0312 17.055 75.0312 18.1396V23H73.5479V13.0059H75.8516L78.627 20.9561H78.668L81.5254 13.0059H83.8359V23H82.2637V18.0576C82.2637 17.5609 82.2751 16.9137 82.2979 16.1162C82.3252 15.3187 82.348 14.8356 82.3662 14.667H82.3115L79.3105 23H77.8682ZM95.3408 17.9893C95.3408 19.6162 94.9329 20.8809 94.1172 21.7832C93.306 22.6855 92.1553 23.1367 90.665 23.1367C89.1566 23.1367 87.9967 22.6901 87.1855 21.7969C86.3789 20.8991 85.9756 19.6253 85.9756 17.9756C85.9756 16.3258 86.3812 15.0589 87.1924 14.1748C88.0081 13.2907 89.1702 12.8486 90.6787 12.8486C92.1644 12.8486 93.3128 13.2975 94.124 14.1953C94.9352 15.0931 95.3408 16.3577 95.3408 17.9893ZM87.7119 17.9893C87.7119 19.2197 87.9603 20.154 88.457 20.792C88.9538 21.4255 89.6898 21.7422 90.665 21.7422C91.6357 21.7422 92.3672 21.4277 92.8594 20.7988C93.3561 20.1699 93.6045 19.2334 93.6045 17.9893C93.6045 16.7633 93.3584 15.8337 92.8662 15.2002C92.3786 14.5667 91.6494 14.25 90.6787 14.25C89.6989 14.25 88.9583 14.5667 88.457 15.2002C87.9603 15.8337 87.7119 16.7633 87.7119 17.9893Z" fill="#4B5963"/>
<path fill-rule="evenodd" clip-rule="evenodd" d="M24.7334 8.61914C34.5278 8.61914 42.4669 16.3159 42.4669 25.8092C42.4669 35.3034 34.5278 42.9992 24.7334 42.9992C14.94 42.9992 7 35.3034 7 25.8092C7 16.3159 14.94 8.61914 24.7334 8.61914Z" fill="black"/>
<path fill-rule="evenodd" clip-rule="evenodd" d="M24.7335 9.22266C33.8524 9.22266 41.2433 16.6487 41.2433 25.8095C41.2433 34.9711 33.8524 42.3972 24.7335 42.3972C15.6155 42.3972 8.22363 34.9711 8.22363 25.8095C8.22363 16.6487 15.6155 9.22266 24.7335 9.22266Z" fill="#619A41"/>
<path fill-rule="evenodd" clip-rule="evenodd" d="M40.6315 25.2062C40.6315 34.0345 33.5133 41.1907 24.7335 41.1907C15.9527 41.1907 8.83447 34.0345 8.83447 25.2062C8.83447 16.378 15.9489 9.22266 24.7335 9.22266C33.518 9.22266 40.6315 16.3818 40.6315 25.2062Z" fill="#7BBA48"/>
<path fill-rule="evenodd" clip-rule="evenodd" d="M12.5173 27.3164C12.5173 27.3164 12.011 35.8616 17.1124 37.3492C22.2148 38.8369 16.4921 32.3276 16.4921 32.3276L13.719 27.9985L12.5173 27.3164Z" fill="#619A41"/>
<path fill-rule="evenodd" clip-rule="evenodd" d="M32.6831 35.1579C32.6831 35.1579 35.7753 33.6465 35.0049 27.9199H34.3019L33.863 28.3674L33.3148 31.2325L32.6831 35.1579Z" fill="#619A41"/>
<path fill-rule="evenodd" clip-rule="evenodd" d="M14.0456 24.3013C14.0456 24.3013 12.7603 20.4291 15.3452 18.873L16.7835 22.5533L16.166 23.6771L14.0456 24.3013Z" fill="#619A41"/>
<path fill-rule="evenodd" clip-rule="evenodd" d="M11.8937 24.708C11.8937 24.708 11.83 24.974 12.6727 24.974C12.6727 24.974 13.8165 24.3812 16.3406 25.5088L16.7842 24.7783L14.869 24.4857C14.869 24.4857 12.799 23.9518 11.8937 24.708Z" fill="#619A41"/>
<path fill-rule="evenodd" clip-rule="evenodd" d="M32.6047 17.666C32.6047 17.666 34.9274 18.6141 33.3647 24.2437L31.9283 24.904L31.459 23.5996V20.7022L32.6047 17.666Z" fill="#619A41"/>
<path fill-rule="evenodd" clip-rule="evenodd" d="M31.459 26.1122C31.459 26.1122 33.625 25.0634 35.7396 25.793C35.7387 25.793 34.1209 20.8759 31.459 26.1122Z" fill="#619A41"/>
<path fill-rule="evenodd" clip-rule="evenodd" d="M15.9968 17.969C13.2846 20.193 13.8128 25.5794 18.2207 25.5082C20.9662 25.4626 22.5631 23.4533 22.2487 21.0613C21.8326 17.8835 18.6786 15.7698 15.9968 17.969Z" fill="white"/>
<path fill-rule="evenodd" clip-rule="evenodd" d="M33.8079 28.5272C29.0009 30.9288 22.7737 31.7752 17.4681 30.3284C16.0602 29.9437 14.8717 29.3813 13.8353 28.6194C13.7337 30.5013 13.6862 30.3883 13.7669 31.3696C21.4238 34.1521 28.1127 34.0011 33.8335 30.9165C33.9371 30.1223 33.9285 29.3157 33.8088 28.5234L33.8079 28.5272Z" fill="white"/>
<path fill-rule="evenodd" clip-rule="evenodd" d="M27.9126 15.8583C30.393 15.808 32.3785 17.8381 32.654 20.727C32.9295 23.6169 31.1767 26.0555 28.0779 26.1106C22.0084 26.2161 22.0226 15.978 27.9126 15.8583Z" fill="white"/>
<path fill-rule="evenodd" clip-rule="evenodd" d="M31.3929 35.7623C32.1425 34.9624 32.7486 34.0343 33.1837 33.0178C33.2226 32.9294 33.2587 32.8392 33.2939 32.7461L33.2321 32.7527C31.9743 33.3683 30.973 33.6486 30.2529 33.6362L30.2358 33.621C30.6652 34.0124 31.0272 34.647 31.3929 35.7623Z" fill="#579542"/>
<path fill-rule="evenodd" clip-rule="evenodd" d="M17.9099 37.572C17.8187 35.9495 18.1027 34.7515 18.6186 33.9839C17.3104 33.8481 15.7306 33.6077 14.3465 32.7461L14.3389 32.7584C14.9744 34.743 16.2341 36.4415 17.9099 37.572Z" fill="#579542"/>
<path fill-rule="evenodd" clip-rule="evenodd" d="M18.6182 33.984L18.6425 33.9512L18.6182 33.984Z" fill="#3E6B34"/>
<path fill-rule="evenodd" clip-rule="evenodd" d="M20.0018 33.3496C19.1506 37.2351 22.6931 38.4387 26.0447 37.7053C27.8354 37.313 30.1686 35.7996 30.3842 34.6568C30.6369 35.127 30.7946 35.6438 30.8478 36.1768C27.5371 39.0932 22.4015 39.5768 18.6632 37.5315C18.4638 35.3987 18.9292 34.0004 20.0018 33.3496Z" fill="#325327"/>
<path fill-rule="evenodd" clip-rule="evenodd" d="M14.5821 32.9197C15.8911 33.6398 17.3893 33.8402 18.629 33.9523C18.7905 33.7357 18.9948 33.5505 19.2304 33.4051C17.5498 33.1714 15.9073 32.7468 14.3389 32.1426C14.4082 32.4105 14.4899 32.6689 14.5821 32.9197Z" fill="#467739"/>
<path fill-rule="evenodd" clip-rule="evenodd" d="M29.947 33.953C30.6614 33.9682 31.6627 33.6557 32.9215 32.9698C33.0811 32.5062 33.2055 32.0284 33.2939 31.541C32.436 32.2877 30.9113 32.9413 29.0142 33.384C29.359 33.4932 29.6782 33.688 29.947 33.953Z" fill="#467739"/>
<path fill-rule="evenodd" clip-rule="evenodd" d="M27.0096 15.8574C23.5079 18.2238 22.8049 23.0346 27.6679 25.7867C22.613 25.2728 22.443 17.0886 27.0096 15.8631V15.8574ZM33.0753 28.9549C33.4192 29.3492 33.5199 30.1433 33.5094 31.1123C33.6187 31.0572 33.726 31.0021 33.8343 30.947C33.9369 30.1709 33.9284 29.3843 33.8087 28.612C33.5674 28.7288 33.3232 28.8419 33.0753 28.9511V28.9549ZM14.5191 29.1582C14.1296 29.8954 14.0745 30.701 14.1933 31.5398C14.0508 31.4923 13.9092 31.4382 13.7667 31.3916C13.6869 30.4321 13.7344 30.5433 13.8351 28.707C14.0555 28.8656 14.2835 29.0167 14.5191 29.1563V29.1582ZM17.1867 17.2606L18.4122 17.0373H18.4378C14.445 18.2048 13.6413 23.8269 17.5553 25.7117C17.2637 25.6756 16.9768 25.6043 16.7022 25.4998C16.65 25.4818 16.6006 25.4599 16.5474 25.4381H16.5379C16.4476 25.3972 16.3593 25.3535 16.2757 25.306L16.2519 25.2937L16.1398 25.2272L16.1085 25.2072L16.0173 25.1483L15.9726 25.117L15.89 25.0562L15.8425 25.0201L15.7712 24.9621L15.719 24.9184L15.6601 24.8652L15.6069 24.8168L15.548 24.7588L15.4967 24.7066L15.4444 24.6486L15.3922 24.5907L15.3466 24.5375L15.2934 24.471C13.895 22.704 14.2151 19.5605 16.0477 17.973C16.3868 17.6738 16.7735 17.4335 17.1924 17.2625L17.1867 17.2606Z" fill="#DFEAEA"/>
<path fill-rule="evenodd" clip-rule="evenodd" d="M15.7337 17.1523C18.6863 14.5598 22.1556 17.0516 22.6164 20.7955C22.9641 23.6189 21.2056 25.9825 18.1828 26.0376C16.602 26.0661 15.4753 25.4125 14.7761 24.4254C13.7425 24.0673 12.6681 23.9904 11.5899 24.4254C10.8194 24.7275 11.5462 23.6446 13.1146 23.6113C13.5516 23.6047 13.9886 23.6636 14.4085 23.7871C13.429 21.7218 13.9268 18.7464 15.7423 17.158L15.7337 17.1523Z" fill="#060405"/>
<path fill-rule="evenodd" clip-rule="evenodd" d="M31.2262 25.4204C31.6375 25.1373 32.0118 24.6395 32.5077 24.4657C33.6933 24.0515 34.3545 24.6747 34.9188 24.9188C35.0717 24.9844 35.2171 24.8913 35.0613 24.7298C34.2319 23.8976 33.2135 23.4197 32.0745 24.1864C32.8411 23.1044 33.1926 21.6813 33.0511 20.1451C32.7518 16.8867 30.5754 14.6001 27.8594 14.6533C21.4118 14.7872 21.3957 26.3362 28.0399 26.2165C29.2283 26.1947 30.2363 25.8432 31.0267 25.2542C30.9573 25.4299 31.0571 25.5363 31.2262 25.4204Z" fill="#060405"/>
<path fill-rule="evenodd" clip-rule="evenodd" d="M27.8782 15.414C22.1337 15.5308 22.1194 25.556 28.0397 25.4506C31.0636 25.3993 32.7726 23.0091 32.5037 20.181C32.2349 17.3519 30.2988 15.3636 27.8782 15.413V15.414Z" fill="white"/>
<path fill-rule="evenodd" clip-rule="evenodd" d="M17.7046 25.3667C17.3636 25.3372 17.0292 25.2612 16.709 25.1396C16.6577 25.1197 16.6093 25.0997 16.557 25.0769H16.5475C16.4601 25.0361 16.3737 24.9933 16.292 24.9468L16.2682 24.9335L16.158 24.8689L16.1276 24.848L16.0393 24.79L15.9946 24.7587L15.9148 24.6979L15.8673 24.6618L15.798 24.6048L15.7457 24.5611L15.6878 24.5088L15.6365 24.4594L15.5785 24.4024L15.5291 24.3511L15.4769 24.2941L15.4266 24.2362L15.3819 24.183L15.3297 24.1174C13.9607 22.3618 14.2752 19.2421 16.0687 17.6651C18.6366 15.4117 21.6528 17.5777 22.0546 20.8343C22.3529 23.2852 20.8272 25.3448 18.1986 25.3904C18.0343 25.3923 17.8699 25.3866 17.7065 25.3714L17.7046 25.3667Z" fill="white"/>
<path fill-rule="evenodd" clip-rule="evenodd" d="M27.638 19.1425H27.7112C27.4252 19.4123 27.316 19.8237 27.429 20.2027C27.543 20.5818 27.8594 20.862 28.246 20.9247C28.6317 20.9884 29.0193 20.825 29.2454 20.502C29.2454 20.5466 29.2511 20.5913 29.2511 20.6369C29.2511 21.5298 28.8901 22.2499 27.8499 22.2499C26.8077 22.2499 26.2358 21.5251 26.2358 20.6369C26.2358 19.7486 26.7479 19.1406 27.638 19.1406V19.1425Z" fill="#060405"/>
<path fill-rule="evenodd" clip-rule="evenodd" d="M13.184 27.7429C12.9883 27.57 12.7983 27.3886 12.613 27.1967C12.4145 26.7074 12.7888 26.6599 12.9845 26.7749C14.2461 27.9177 15.7575 28.7404 17.3943 29.1755C22.2032 30.4865 27.6713 29.5964 32.1097 27.9871C32.5618 27.8227 33.4406 27.5491 33.9716 27.399C34.3782 27.2841 34.4903 27.2204 34.5825 27.4503C34.7003 27.7429 34.2576 27.8816 34.0419 27.9548C35.5866 37.866 24.5192 41.6194 17.7762 38.0684C14.7676 36.48 12.6833 32.7912 13.184 27.7429Z" fill="#060405"/>
<path fill-rule="evenodd" clip-rule="evenodd" d="M18.2367 5.62504C20.6487 4.84985 21.1921 5.90053 20.7028 6.97972C20.357 7.74161 18.8893 8.22231 17.7531 8.6422C14.7207 9.76034 11.6817 9.51619 18.2367 5.62504ZM32.0409 8.56525C36.7291 9.93419 35.4533 8.36955 32.3525 6.37268C29.6337 4.6209 29.0779 4.83655 28.8347 5.43029C28.4395 6.38503 29.3002 7.76631 32.0438 8.56525H32.0409Z" fill="#060405"/>
<path fill-rule="evenodd" clip-rule="evenodd" d="M18.2944 19.207C17.4042 19.207 16.9834 19.8122 16.9834 20.7033C16.9834 21.5944 17.5553 22.3163 18.5965 22.3163C19.6377 22.3163 19.9977 21.5915 19.9977 20.7033C19.9977 20.6634 19.9977 20.6225 19.993 20.5845C19.7517 20.8629 19.3812 20.9892 19.023 20.917C18.6639 20.8439 18.3704 20.5826 18.2526 20.2321C18.1357 19.8806 18.2127 19.493 18.454 19.2146C18.4008 19.2146 18.3485 19.208 18.2944 19.208V19.207Z" fill="black"/>
<path fill-rule="evenodd" clip-rule="evenodd" d="M31.0625 35.5529C30.4573 33.7223 29.8531 33.195 28.9497 32.9091C30.9114 32.5053 32.4865 31.8936 33.3729 31.1953C33.2598 31.7539 33.0907 32.2992 32.8637 32.8226C32.4276 33.8315 31.8168 34.754 31.0625 35.5491V35.5529Z" fill="#3E6B34"/>
<path fill-rule="evenodd" clip-rule="evenodd" d="M17.7461 37.1277C15.9534 35.9563 14.5598 34.1418 13.9746 31.6719C15.6086 32.3616 17.3205 32.8451 19.0713 33.1102C18.1869 33.6982 17.6273 35.0434 17.7489 37.1267L17.7461 37.1277Z" fill="#3E6B34"/>
<path fill-rule="evenodd" clip-rule="evenodd" d="M28.0473 33.0762C29.3887 33.5236 30.2636 34.466 30.4622 36.1313C27.1695 39.0459 22.0652 39.5285 18.3489 37.486C18.1446 35.2526 18.6586 33.8267 19.8423 33.2177C22.5716 33.5645 25.336 33.517 28.053 33.0762H28.0473Z" fill="#3E6B34"/>
<path fill-rule="evenodd" clip-rule="evenodd" d="M33.4557 28.2333C28.7514 30.5608 22.6553 31.3806 17.4626 29.9784C16.0842 29.6061 14.9205 29.0617 13.9059 28.3236C13.8061 30.1475 13.7605 30.0364 13.8394 30.9883C21.3338 33.6844 27.8821 33.5381 33.4814 30.5494C33.5821 29.7789 33.5735 28.999 33.4567 28.2305L33.4557 28.2333Z" fill="white"/>
<path fill-rule="evenodd" clip-rule="evenodd" d="M24.7333 37.5277C22.2092 37.5277 20.0366 36.0476 19.0182 33.9102C18.4311 34.6777 18.2012 35.869 18.3484 37.4869C22.0648 39.5293 27.1691 39.0477 30.4617 36.1322C30.3943 35.5631 30.2413 35.0834 30.0229 34.673C28.8905 36.3925 26.9458 37.5277 24.7333 37.5277Z" fill="#375E2D"/>
</svg>
